<svg width="122" height="122" viewBox="0 0 122 122" fill="none" xmlns="http://www.w3.org/2000/svg">
<g clip-path="url(#clip0_426_288)">
<path d="M98.3625 51.0367C96.655 42.3834 91.9962 34.5914 85.1818 28.9915C78.3674 23.3917 69.8201 20.3314 61 20.3334C46.3092 20.3334 33.55 28.67 27.1958 40.87C19.7245 41.6774 12.8151 45.2173 7.79523 50.8096C2.77535 56.4018 -0.000872817 63.6519 2.05838e-07 71.1667C2.05838e-07 87.9925 13.6742 101.667 30.5 101.667H96.5833C110.613 101.667 122 90.28 122 76.25C122 62.83 111.579 51.9517 98.3625 51.0367ZM50.8333 86.4167L33.0417 68.625L40.2092 61.4575L50.8333 72.0309L77.165 45.75L84.3325 52.9175L50.8333 86.4167Z" fill="#878DF2"/>
</g>
<defs>
<clipPath id="clip0_426_288">
<rect width="122" height="122" fill="white"/>
</clipPath>
</defs>
</svg>
