<svg width="25" height="25" viewBox="0 0 25 25" fill="none" xmlns="http://www.w3.org/2000/svg">
<path d="M12.5439 11.1086C12.5258 11.0854 12.5027 11.0667 12.4763 11.0539C12.4498 11.041 12.4208 11.0343 12.3915 11.0343C12.3621 11.0343 12.3331 11.041 12.3066 11.0539C12.2802 11.0667 12.2571 11.0854 12.239 11.1086L9.52838 14.538C9.50603 14.5665 9.49217 14.6008 9.48837 14.6368C9.48457 14.6729 9.49099 14.7092 9.50689 14.7418C9.5228 14.7744 9.54755 14.8018 9.57831 14.821C9.60907 14.8401 9.64461 14.8503 9.68085 14.8502H11.4694V20.7167C11.4694 20.8232 11.5565 20.9103 11.663 20.9103H13.1151C13.2216 20.9103 13.3087 20.8232 13.3087 20.7167V14.8526H15.1021C15.2642 14.8526 15.3537 14.6662 15.2545 14.5404L12.5439 11.1086Z" fill="black" fill-opacity="0.2"/>
<path d="M19.6372 8.87482C18.5288 5.95125 15.7044 3.87231 12.3961 3.87231C9.08768 3.87231 6.26333 5.94883 5.15489 8.8724C3.0808 9.41694 1.54883 11.3071 1.54883 13.553C1.54883 16.2273 3.71489 18.3934 6.38676 18.3934H7.35725C7.46374 18.3934 7.55087 18.3062 7.55087 18.1998V16.7477C7.55087 16.6412 7.46374 16.554 7.35725 16.554H6.38676C5.57116 16.554 4.80397 16.2297 4.2328 15.6416C3.66406 15.056 3.36154 14.267 3.38816 13.449C3.40994 12.81 3.62776 12.2098 4.02225 11.704C4.42642 11.1885 4.99274 10.8134 5.62199 10.6464L6.53923 10.4068L6.87564 9.52101C7.08377 8.96921 7.37419 8.45371 7.73964 7.98661C8.10042 7.52365 8.52778 7.11668 9.00781 6.77895C10.0025 6.07952 11.1739 5.70923 12.3961 5.70923C13.6182 5.70923 14.7896 6.07952 15.7843 6.77895C16.2659 7.11777 16.6919 7.52436 17.0525 7.98661C17.4179 8.45371 17.7083 8.97163 17.9165 9.52101L18.2505 10.4044L19.1653 10.6464C20.477 10.9997 21.3943 12.1929 21.3943 13.553C21.3943 14.3541 21.0821 15.1092 20.5158 15.6755C20.238 15.9549 19.9076 16.1764 19.5437 16.3272C19.1798 16.478 18.7896 16.5551 18.3957 16.554H17.4252C17.3187 16.554 17.2316 16.6412 17.2316 16.7477V18.1998C17.2316 18.3062 17.3187 18.3934 17.4252 18.3934H18.3957C21.0676 18.3934 23.2336 16.2273 23.2336 13.553C23.2336 11.3095 21.7065 9.42178 19.6372 8.87482Z" fill="black" fill-opacity="0.2"/>
</svg>
